<svg width="296" height="131" viewBox="0 0 296 131" fill="none" xmlns="http://www.w3.org/2000/svg">
<path d="M110.5 43L164.5 130.5H191L150.5 65H158C202 52.5 194 6 158 0.499992H83L105.5 35V22H158C161.406 21.7593 172.814 34.5235 158 43H110.5Z" fill="#2A2F3C" stroke="#2A2F3C"/>
<path d="M15 85L1.5 106.5H52.5L66 85H15Z" fill="#6B969D" stroke="#DDDDDD"/>
<path d="M67.5 1L24.5 69.5H50L67.5 42L108.5 106.5H134L67.5 1Z" fill="#2A2F3C" stroke="#2A2F3C"/>
<path d="M194.219 64.9688C196.344 64.9688 198.135 65.3646 199.594 66.1562C201.073 66.9271 202.271 67.9792 203.188 69.3125C204.125 70.6458 204.792 72.1875 205.188 73.9375C205.604 75.6667 205.812 77.5 205.812 79.4375V80.9062H186.562C186.562 82.0729 186.75 83.3333 187.125 84.6875C187.5 86.0417 188.104 87.2917 188.938 88.4375C189.792 89.5833 190.885 90.5417 192.219 91.3125C193.573 92.0625 195.229 92.4375 197.188 92.4375H203.688V95H197.094C194.177 95 191.656 94.6667 189.531 94C187.427 93.3333 185.688 92.3646 184.312 91.0938C182.958 89.8229 181.958 88.2708 181.312 86.4375C180.667 84.6042 180.344 82.5104 180.344 80.1562C180.344 78.1979 180.646 76.3021 181.25 74.4688C181.875 72.6354 182.771 71.0208 183.938 69.625C185.125 68.2083 186.573 67.0833 188.281 66.25C190.01 65.3958 191.99 64.9688 194.219 64.9688ZM193.906 67.8125C192.615 67.8125 191.51 68.1042 190.594 68.6875C189.677 69.2708 188.917 70.0521 188.312 71.0312C187.729 71.9896 187.292 73.1146 187 74.4062C186.729 75.6771 186.583 77 186.562 78.375H199.781V77.0312C199.74 75.8229 199.625 74.6667 199.438 73.5625C199.271 72.4583 198.969 71.4792 198.531 70.625C198.094 69.7708 197.5 69.0938 196.75 68.5938C196.021 68.0729 195.073 67.8125 193.906 67.8125ZM227.019 67.6875C226.019 67.6875 225.144 67.7188 224.394 67.7812C223.665 67.8438 222.998 67.9271 222.394 68.0312C221.79 68.1354 221.227 68.2604 220.706 68.4062C220.185 68.5312 219.665 68.6667 219.144 68.8125L218.394 66.7812C220.144 66.1354 221.967 65.6771 223.862 65.4062C225.779 65.1146 227.592 64.9688 229.3 64.9688C231.487 64.9688 233.279 65.0833 234.675 65.3125C236.092 65.5417 237.196 65.9271 237.987 66.4688C238.779 66.9896 239.321 67.6979 239.612 68.5938C239.925 69.4688 240.081 70.5729 240.081 71.9062V95H229.831C227.04 95 224.654 94.7083 222.675 94.125C220.717 93.5417 219.112 92.7604 217.862 91.7812C216.612 90.7812 215.696 89.6458 215.112 88.375C214.529 87.0833 214.237 85.7292 214.237 84.3125C214.237 82.5625 214.508 81.0208 215.05 79.6875C215.612 78.3542 216.415 77.2396 217.456 76.3438C218.498 75.4271 219.769 74.7396 221.269 74.2812C222.769 73.8021 224.477 73.5625 226.394 73.5625C227.435 73.5625 228.612 73.7396 229.925 74.0938C231.258 74.4479 232.529 74.9792 233.737 75.6875V71.7812C233.737 71.3021 233.685 70.8229 233.581 70.3438C233.477 69.8438 233.206 69.4062 232.769 69.0312C232.331 68.6354 231.654 68.3125 230.737 68.0625C229.842 67.8125 228.602 67.6875 227.019 67.6875ZM233.737 92.4375V77.9688C232.737 77.3646 231.696 76.9167 230.612 76.625C229.529 76.3333 228.331 76.1875 227.019 76.1875C225.977 76.1875 225.05 76.375 224.237 76.75C223.446 77.125 222.779 77.6562 222.237 78.3438C221.696 79.0312 221.279 79.8542 220.987 80.8125C220.717 81.7708 220.581 82.8333 220.581 84C220.581 84.3333 220.592 84.7708 220.612 85.3125C220.654 85.8542 220.758 86.4375 220.925 87.0625C221.112 87.6875 221.383 88.3229 221.737 88.9688C222.112 89.5938 222.633 90.1667 223.3 90.6875C223.967 91.2083 224.81 91.6354 225.831 91.9688C226.852 92.2812 228.102 92.4375 229.581 92.4375H233.737ZM253.1 48.5312H259.444V95H253.1V48.5312Z" fill="black"/>
</svg>
